<svg width="800" height="600" xmlns="http://www.w3.org/2000/svg">
 <g>
  <title>Layer 1</title>
  <path d="m275.33331,200.99998c0,1 2.09763,13.98413 4,26c3.16248,19.97495 6.3483,36.93858 9,52.99998c1.15182,6.97662 1.9725,14.64749 3,19c1.83801,7.78598 -0.4971,16.01547 0,24c1.00192,16.09335 2.49902,24.95331 3,33c0.3107,4.99033 0.49829,8.93796 1,15c0.32993,3.98636 0,8 0,10c0,2 0,3 0,4c0,1 1.29291,1.70709 2,1c0.70709,-0.70709 0,-1 0,-3c0,-2 0,-3 0,-6c0,-2 0,-5 0,-14c0,-9 -2.98163,-21.71201 -4,-27c-1.13464,-5.89172 -1,-14 -2,-21c-1,-7 -1.49829,-11.93796 -2,-18c-0.32993,-3.98636 0,-9 0,-16c0,-5 -0.20139,-12.04453 1,-17c1.71527,-7.07516 3.27347,-10.9223 4,-13.99998c1.6246,-6.88191 2.60703,-11.17572 5,-16c2.59106,-5.22363 7.46448,-9.46446 11,-13c3.53552,-3.53554 8,-8 11,-9c3,-1 5.90778,-2.49623 10,-3c3.97003,-0.48874 10.08264,-0.30554 18,2c6.07233,1.76826 15.28714,6.5665 20,10c8.5918,6.25948 11.31021,11.71899 14,15c2.28589,2.78833 3,5 4,7c0,0 0,0 -1,-1c-3,-3 -5,-5 -11,-9c-9,-6 -11.44965,-9.17293 -19,-12c-4.77527,-1.78799 -11.96384,-4.11586 -15,-5c-3.95868,-1.15277 -8,-1 -10,-1c-2,0 -3.186,-0.30745 -5,1c-1.14728,0.8269 -0.87766,2.06601 -2,4c-1.80972,3.11848 -6.34546,8.80833 -9,14c-3.4671,6.78079 -4.91232,10.03067 -6,13c-1.85226,5.05659 -4.48038,8.63567 -6,17.99998c-0.96109,5.92252 -1.51126,14.02997 -2,18c-0.50378,4.09222 -2,13 -2,18c0,8 0.18323,12.96683 1,18c1.29144,7.95816 0.83704,13.02206 2,21c0.87741,6.01913 1,13 2,15c1,2 1,4 2,6c1,2 1.49347,3.87857 2,7c0.48056,2.96127 1,5 1,10c0,3 1,7 1,8c0,1 0,2 0,1c0,-1 -1.79803,-5.7962 -5,-20c-2.67535,-11.86771 -4,-20 -7,-38c-2,-12 -4.49939,-30.96262 -5,-41c-0.29889,-5.99255 -1,-13 -1,-17c0,-4 -1,-8 -1,-12c0,-3.99998 -0.98163,-5.71199 -2,-10.99998c-0.75644,-3.92783 -1.75095,-12.00621 -2,-17c-0.50061,-10.0374 -1.50732,-14.02434 -2,-19c-0.50244,-5.0742 -2.9725,-7.64749 -4,-12c-0.68927,-2.91975 -2.49622,-4.90779 -3,-9c-0.12219,-0.99251 -0.29291,-3.29289 -1,-4c-0.70709,-0.70711 -1.23407,2.00685 -1,6c1.00171,17.08791 8.66037,42.76872 13,79.99998c1.62497,13.94128 3.3364,28.01837 4,40c0.50076,9.04153 0.58759,17.01703 1,22c0.50171,6.06204 0.71643,10.01007 1,14c0.50125,7.05328 2,10 2,14c0,3 0,6 0,8c0,1 0,3 0,4c0,0 0,0 0,-1c0,-7 0.20624,-20.10205 -2,-39c-1.29645,-11.10492 -2,-21 -2,-31c0,-7 0.37497,-17.16205 3,-26c2.43271,-8.19037 5.34518,-16.17697 7,-21c2.17706,-6.34509 5,-8.99998 9,-14.99998c2,-3 5.37201,-8.3851 9,-11c2.29453,-1.65381 3.70547,-5.34619 6,-7c1.814,-1.30745 3.90283,-2.2242 6,-3c3.867,-1.4305 7,-2 12,-3c5,-1 10,-1 16,-1c5,0 9.96384,1.11586 13,2c3.95868,1.15277 7.08582,1.42043 9,2c3.45084,1.04483 5,4 8,7c3,3 6.32367,6.52016 8,8c2.703,2.38617 1.69254,5.186 3,7c0.8269,1.14726 1,2 0,2c-1,0 -2.81265,-2.2068 -5,-4c-5.57666,-4.57176 -9.82285,-7.18536 -14,-11c-5.76727,-5.26675 -7.80243,-7.43288 -14,-10c-2.92157,-1.21014 -7.15225,-2.23463 -9,-3c-1.30655,-0.5412 -3,-2 -4,-2c-3,0 -5,0 -9,0c-3,0 -7.02676,-0.22975 -8,0c-2.17624,0.51375 -6.0535,1.5405 -8,2c-2.17624,0.51375 -3.69345,1.4588 -5,2c-0.92389,0.38269 -1.82443,-0.90211 -3,1c-0.52573,0.85065 -0.32367,1.52016 -2,3c-2.703,2.38617 -4,8 -6,10c-2,2 -3.61731,4.07613 -4,5c-0.5412,1.30656 -2.14429,2.93414 -3,5c-1.21014,2.92157 -3.11588,7.96384 -4,11c-1.15277,3.95866 -3.22421,8.90282 -4,10.99998c-1.43048,3.867 -1,6 -2,10c-1,4 -1.49829,7.93796 -2,14c-0.32993,3.98636 -1,10 -1,13c0,3 0,9 0,12c0,7 0,11 0,18c0,3 -0.91901,7.10699 0,11c0.51373,2.17624 2,6 2,10c0,4 1,6 1,8c0,1 0.48627,1.82376 1,4c0.22977,0.97324 0,2 0,2c0,0 0,-1 0,-4c0,-10 -2,-36 -2,-45c0,-9 0,-15 1,-24c1,-9 2.49829,-16.93796 3,-23c0.24744,-2.98978 1.56354,-6.0239 2,-10c1.00601,-9.16447 4.06473,-14.39783 7,-19.99998c2.32053,-4.42889 4.724,-7.22273 8,-11c2.77979,-3.20512 7.21167,-5.71413 10,-8c3.28101,-2.68979 6.96384,-4.11586 10,-5c3.95868,-1.15277 7,-2 11,-2c4,0 8.19577,-0.35114 12,2c4.25327,2.62866 7.71899,5.31021 11,8c2.78833,2.28587 5.724,6.22273 9,10c3.70639,4.2735 5.37134,5.74675 8,10c1.17557,1.90211 2.4588,3.69344 3,5c0.38269,0.92387 0,2 -1,1c-2,-2 -9.81781,-7.21387 -18,-14c-13.70441,-11.36613 -22,-16 -28,-20c-6,-4 -8,-6 -12,-8c-2,-1 -4,-1 -5,-1c-1,0 -2.07611,-0.38269 -3,0c-1.30655,0.5412 -2,2 -2,3c0,1 -1.16132,4.24403 -3,9c-2.10263,5.43866 -5.2124,14.90067 -7,19c-3.41519,7.83176 -3.76138,12.04468 -5,17.99998c-1.67917,8.07343 -2.14471,12.05246 -3,19c-0.50378,4.09222 -2,11 -2,18c0,5 0,14 0,18c0,7 -0.49829,10.93796 -1,17c-0.98978,11.95911 0,19 0,26c0,4 0,8 0,10c0,2 0,3 0,4c0,3 0,5 0,8c0,2 0,3 0,4c0,0 0,2 0,2c-2,-5 -3.66821,-13.00919 -4,-19c-0.50076,-9.04153 -0.43289,-17.02011 -1,-25c-1.00253,-14.10657 -3.49875,-20.94672 -4,-28c-0.35443,-4.98743 -1.62717,-14.0116 -2,-20c-0.50098,-8.04669 -0.60583,-13.01947 -1,-17c-0.50244,-5.07422 -0.76135,-9.04468 -2,-15c-0.8396,-4.0367 -1,-7.99998 -2,-12.99998c-1,-5 -2.49756,-10.9258 -3,-16c-0.49268,-4.97566 0,-10 0,-13c0,-4 -0.49829,-7.93796 -1,-14c-0.16495,-1.99318 0,-4 0,-6c0,-1 0,-2 0,-2c0,-1 -0.48627,-1.82375 -1,-4c-0.22977,-0.97325 0,-3 0,-5c0,-1 0,-3 0,-4c0,-1 0,0 0,2c0,1 -0.09268,4.02432 1,8c2.76682,10.06702 5.21082,20.94876 9,37c2.11823,8.97292 2.79843,18.21631 5,27c1.30923,5.22359 3,14.99998 3,18.99998c0,6 1.6893,15.00967 2,20c0.50098,8.04669 1.02252,12.05994 2,20c0.50378,4.09222 0.26691,8.04495 1,14c0.50378,4.09222 1,7 1,9c0,3 0,4 0,5c0,1 0,2 0,2c0,1 0,2 0,4c0,1 0,2 0,2c0,1 0,2 0,4c0,1 0,4 0,4c0,4 0,6 0,8c0,2 0,4 0,6c0,0 -1,2 0,2c1,0 0,-2 0,-2c0,-2 0,-11 0,-20c0,-11 0,-15 0,-20c0,-4 0,-8 0,-14c0,-5 0,-9 0,-11c0,-4 0,-9 0,-12c0,-5 0,-9 0,-11c0,-5 1.49756,-8.92578 2,-14c0.39417,-3.98053 1.48627,-6.82376 2,-9c0.22977,-0.97324 1.31073,-4.08026 2,-6.99998c1.0275,-4.35251 3.33749,-6.31001 5,-9c0.7435,-1.203 2.21167,-0.71413 5,-3c2.18735,-1.7932 6,-5 8,-6c4,-2 6.96384,-3.11586 10,-4c3.95868,-1.15277 6.90778,-1.49623 11,-2c2.97751,-0.36655 6,0 9,0c2,0 6,0 8,1c2,1 4,1 6,2c4,2 6,3 10,5c2,1 6.186,1.69255 8,3c1.14728,0.8269 2,4 3,3c1,-1 -1.04291,-1.71022 -2,-2c-3.45084,-1.04483 -8.78342,-6.39153 -23,-14c-7.88593,-4.22043 -15.22937,-6.33199 -19,-8c-3.29733,-1.45863 -6.82376,-3.48625 -9,-4c-2.91974,-0.68925 -4,0 -6,0c0,0 -2,0 -3,0c-1,0 -1,2 -2,3c-1,1 -3.34619,2.70546 -5,5c-2.6149,3.62799 -4.37134,5.74675 -7,10c-2.35114,3.80423 -4.96854,10.41208 -7,14c-1.39355,2.4613 -4.82443,8.09789 -6,9.99998c-2.62866,4.25327 -5.5405,8.0535 -6,10c-0.51373,2.17624 -4,4 -2,4c1,0 0,-1 0,-2c0,-1 1.3851,-4.37201 4,-8c2.48071,-3.4418 8.22733,-9.7849 12,-13.99998c4.27039,-4.77115 6,-7 10,-9c2,-1 5,-3 8,-4c3,-1 6.96384,-3.11586 10,-4c3.95868,-1.15277 5.94366,-1.18834 9,-2c4.92819,-1.30876 7,-1 10,-1c3,0 6,0 8,0l3,1l2,2" id="svg_1" stroke="#000" fill="none"/>
  <path stroke="#000" d="m421.08332,273.99997c-0.75,0 -0.75,0 -2.25,-1c-3,-2 -6,-3 -7.5,-4c-3,-2 -4.98562,-3.9725 -8.25,-5c-1.45988,-0.4595 -5.11782,-1.48627 -6.75,-2c-1.45988,-0.4595 -3,0 -4.5,0c-0.75,0 -1.5,0 -2.25,0c-2.25,0 -3,1 -5.25,2c-2.25,1 -3.90875,2.71411 -6,5c-1.64051,1.79318 -3.25964,3.70547 -4.5,6c-1.96117,3.62799 -3.59239,7.07843 -4.5,10c-1.28357,4.13171 -2.48305,6.08026 -3,9c-0.3853,2.17624 -1.5,4 -1.5,6c0,1 -0.39429,3.14935 0,4c0.88168,1.9021 2.50964,2.70547 3.75,5c0.9806,1.814 2.39683,1.64886 5.25,4c3.18995,2.62866 8.84811,6.60931 12.75,8c5.12341,1.82605 9,2 11.25,2c3.75,0 6,0 7.5,0c3.75,0 5.93083,1.49622 9,2c1.48876,0.24435 5.30882,0.78986 7.5,2c1.54939,0.85571 3.31414,2.41885 4.5,4c2.37172,3.16229 2.13542,7.04132 3,11c0.66312,3.03616 1.43925,5.10699 0.75,9c-0.3853,2.17624 -1.5,4 -2.25,6c-1.5,4 -3.05505,5.93164 -3.75,7c-2.457,3.77728 -4.03152,6.94003 -8.25,10c-2.08335,1.5112 -5.36945,3.61066 -7.5,5c-2.42919,1.58411 -5.65402,4.60645 -7.5,6c-2.69094,2.03146 -4.54843,1.1991 -8.25,2c-2.34107,0.50653 -4.5,2 -6.75,2c-1.5,0 -3.79012,0.4595 -5.25,0c-1.63218,-0.51373 -3.24275,-1.52017 -4.5,-3c-2.02725,-2.38617 -2.63947,-3.5582 -4.5,-7c-0.9806,-1.814 -1.34239,-4.07843 -2.25,-7c-0.64178,-2.06586 -1.5,-6 -1.5,-8c0,-3 0,-5 0,-7c0,-2 0,-4 0,-5c0,-1 0,-1 0,0c0,1 0,1 0,2c0,1 0,3 0,4c0,2 0,3 0,7c0,1 0,5 0,7c0,1 0,4 0.75,5c0.75,1 -0.31066,2.58578 0.75,4c1.06066,1.41422 1.36782,1.48627 3,2c0.72993,0.22977 1.5,1 3,2c0,0 1.36782,0.48627 3,1c1.45988,0.4595 2.25,0 4.5,0c0.75,0 2.25,0 5.25,0c2.25,0 4.5,0 6,0c2.25,0 4.52007,-0.77023 5.25,-1c3.26438,-1.0275 4.77901,-1.3851 7.5,-4c1.72089,-1.65381 4.80906,-3.96854 7.5,-6c2.76897,-2.09033 4.65511,-3.81265 6,-6c1.71442,-2.78833 3.6882,-3.38687 4.5,-6c0.57404,-1.84775 1.1147,-3.82376 1.5,-6c0.34463,-1.9465 0,-6 0,-8c0,-4 0,-6 -1.5,-9c-1.5,-3 -2.21141,-5.29871 -3,-7c-0.88168,-1.9021 -2.82081,-2.41589 -5.25,-4c-2.13055,-1.38934 -3.61782,-2.48627 -5.25,-3c-1.45988,-0.4595 -3.04012,-0.5405 -4.5,-1c-1.63218,-0.51373 -3,-1 -4.5,-1c0,0 -1.5,-1 -1.5,-1c-1.5,0 -3,0 -4.5,0c-3,0 -5.19434,-1.49756 -9,-2c-2.23906,-0.29562 -4.43083,-0.49622 -7.5,-1c-1.48876,-0.24435 -2.25,-1 -3,-1c-0.75,0 -1.27009,-1.4588 -2.25,-2c-0.69292,-0.38269 -1.57343,-2.82443 -3,-4c-0.63799,-0.52573 -1.67596,-2.15225 -2.25,-4c-0.4059,-1.30655 -1.5,-3 -2.25,-4c-0.75,-1 -0.75,-2 -0.75,-4c0,-2 0,-4 0,-6c0,-1 0,-4 0,-5c0,-1 0.75,-4 1.5,-5c1.5,-2 1.27911,-4.34619 3,-6c1.3605,-1.30746 1.91865,-2.51929 4.5,-5c1.3605,-1.30746 4.53218,-2.71021 5.25,-3c2.58813,-1.04483 3.61782,-3.48627 5.25,-4c2.91975,-0.91901 4.40893,-1.49347 6.75,-2c2.22096,-0.48056 3.75,-1 7.5,-1c2.25,0 5.26094,-0.29562 7.5,0c3.80566,0.50244 5.20775,1.18835 7.5,2c3.69614,1.30875 4.91187,1.95517 7.5,3c0.71782,0.28979 2.25,1 3,2c0.75,1 1.27009,2.4588 2.25,3c1.38583,0.76538 1.5,1 1.5,1c0.75,1 0.75,2 0.75,2c-0.75,0 -0.75,0 -2.25,-1c-1.5,-1 -2.82081,-1.41589 -5.25,-3c-2.13055,-1.38934 -3.48562,-2.9725 -6.75,-4c-1.45988,-0.4595 -3.8895,0.30746 -5.25,-1c-0.86046,-0.8269 -2.11782,-1.48627 -3.75,-2c-2.1898,-0.68927 -3.75,0 -6,0c0,0 -1.5,0 -3,0c0,0 -1.5,0 -1.5,0c-0.75,0 -0.96968,0.29291 -1.5,1c-2.12132,2.82843 -4.40893,1.49347 -6.75,2c-0.74032,0.16019 -3,0 -3.75,1c0,0 -0.96968,-0.70709 -1.5,0c-0.53032,0.70709 0.28702,1.07611 0,2c-0.4059,1.30655 -1.65875,0.71411 -3.75,3c-1.64051,1.79318 -2.02911,2.34619 -3.75,4c-1.3605,1.30746 -1.27009,1.4588 -2.25,2c-0.69292,0.38269 -0.75,1 -0.75,2c0,0 -0.25964,0.70547 -1.5,3c-0.9806,1.814 -1.5,3 -2.25,5c-0.75,2 -0.96968,1.29291 -1.5,2c-1.06066,1.41422 0,2 0,4c0,1 0,2 0,4c0,2 -0.28702,3.07611 0,4c0.4059,1.30655 0.75,2 1.5,4c0.75,2 1.57343,3.82443 3,5c1.27597,1.05145 2.02911,1.34619 3.75,3c1.3605,1.30746 3.77007,1.77023 4.5,2c1.63218,0.51373 3.01936,1.67963 4.5,2c2.34107,0.50653 3.77905,1.51944 6,2c2.34107,0.50653 4.52248,1.51126 7.5,2c3.06917,0.50378 6.76687,1.63345 9,2c3.06917,0.50378 5.26687,1.63345 7.5,2c3.06917,0.50378 4.61419,1.23462 6,2c0.97991,0.5412 1.5,2 1.5,2c0.75,0 0.46298,1.07611 0.75,2c0.4059,1.30655 0.25312,2.31 1.5,5c0.55762,1.203 0.75,3 0.75,5c0,1 0,4 0,6c0,0 0,2 0,3c0,1 -1.1147,1.82376 -1.5,4c-0.17233,0.97324 -0.75,3 -0.75,3c-0.75,2 -0.87982,2.85272 -1.5,4c-0.9806,1.814 -1.2694,2.186 -2.25,4c-0.62018,1.14728 -1.5,2 -2.25,3c-0.75,1 -2.36201,2.47427 -3,3c-1.42657,1.17557 -1.38954,3.1731 -2.25,4c-1.3605,1.30746 -1.04015,2.9176 -3,4c-1.38581,0.76538 -1.57343,0.82443 -3,2c-0.63799,0.52573 -1.5,0 -2.25,0c-1.5,0 -2.25,0 -3,0c-1.5,0 -2.25,1 -5.25,1c-0.75,0 -1.5,0 -3,0c0,0 -0.75,0 -1.5,0c-2.25,0 -3.22836,1.53073 -6,0c-0.97991,-0.5412 -1.7325,-0.33749 -3.75,-2c-0.90225,-0.7435 -2.9382,-0.38687 -3.75,-3c-0.28702,-0.92389 -1.5,-2 -2.25,-4c-1.5,-4 -1.92714,-6.133 -3,-10c-0.58184,-2.09717 -0.59239,-4.07843 -1.5,-7c-0.64178,-2.06586 -0.75,-5 -0.75,-7c0,-2 0.75,-3 0,-3c-0.75,0 0,1 0,3c0,0 0,1 0,4c0,1 0.75,3 1.5,6c0,0 -0.18739,5.46259 2.25,8c0.59116,0.61542 1.60098,2.81146 3.75,5c1.88482,1.91949 3.66115,3.19028 6,5c1.45049,1.12234 4.52905,1.51944 6.75,2c2.34107,0.50653 6.76023,1.32993 9.75,1c4.54653,-0.50171 7.73891,-2.22128 12,-5c2.42919,-1.58411 4.55459,-2.8819 8.25,-6c2.28504,-1.92807 4.17295,-4.36774 6.75,-8c1.85834,-2.61926 4.81192,-5.76108 6,-9c1.04201,-2.84073 1.1147,-4.82376 1.5,-7c0.1723,-0.97324 0.28702,-3.07611 0,-4c-0.8118,-2.61313 -3.66115,-5.19028 -6,-7c-2.90099,-2.24469 -4.523,-3.91232 -6.75,-5c-3.79243,-1.85226 -6.75,-4 -9.75,-6c-1.5,-1 -5.30882,-1.78986 -7.5,-3c-1.54939,-0.85571 -4.5,-1 -6.75,-2c-2.25,-1 -3.80882,-0.78986 -6,-2c-1.54939,-0.85571 -3.17127,0.14804 -5.25,-1c-0.97991,-0.5412 -3.06436,-1.42044 -4.5,-2c-2.58813,-1.04483 -4.27911,-3.34619 -6,-5c-2.72099,-2.6149 -4.88947,-3.5582 -6.75,-7c-0.9806,-1.814 -3,-6 -3.75,-8c-0.75,-2 -1.5,-4 -1.5,-6c0,-1 0.51283,-3.05133 0.75,-4c1.18586,-4.74341 3.53558,-6.21167 5.25,-9c1.34489,-2.18735 3.8895,-2.69254 5.25,-4c0.86046,-0.8269 3.66371,-3.27432 5.25,-4c3.61727,-1.65482 5.92712,-1.22421 7.5,-2c2.90025,-1.43048 6.75,-1 10.5,-1c2.25,0 6,0 8.25,0c3.75,0 5.20775,0.18835 7.5,1c3.69614,1.30875 6.56783,1.98691 11.25,3c2.22096,0.48056 4.55383,1.69125 8.25,3c2.29225,0.81165 3.13953,2.69254 4.5,4c0.86046,0.8269 2.25,1 2.25,2c0,1 -0.75,1 -1.5,1c0,0 -1.5,-2 -2.25,-2c-2.25,0 -3.76936,-1.67963 -5.25,-2c-4.68217,-1.01309 -6.88273,-3.34518 -10.5,-5c-3.17255,-1.45139 -6.48562,-3.9725 -9.75,-5c-3.64968,-1.14877 -9.75,-2 -12.75,-2c-4.5,0 -7.5,0 -10.5,0c-2.25,0 -4.36782,0.48627 -6,1c-1.45988,0.4595 -3,1 -3.75,2c-0.75,1 -1.0941,0.69345 -1.5,2c-0.28702,0.92389 -0.3647,0.82376 -0.75,3c-0.34463,1.9465 -1.5,5 -2.25,7c-0.75,2 -2.00972,4.02582 -2.25,6c-0.3799,3.12143 -0.75,4 -0.75,7c0,2 0,4 0,8c0,1 0.3647,2.82376 0.75,5c0.34463,1.9465 1.69238,3.797 2.25,5c1.24688,2.69 2.03558,4.21167 3.75,7c0.67245,1.09366 3,2 4.5,3c1.5,1 3.76936,1.67963 5.25,2c2.34107,0.50653 4.52811,1.38907 8.25,2c3.06917,0.50378 5.85425,2.44839 9,4c2.90025,1.43048 5.73562,2.9725 9,4c0.72993,0.22977 3,2 3,2c1.5,1 2.11832,1.0979 3,3c0.39429,0.85065 0.3441,1.69345 0.75,3c0.57404,1.84775 0,3 0,5c0,1 0,3 0,5c0,2 0,2 0,4c0,1 -0.46298,2.07611 -0.75,3c-0.4059,1.30655 -1.5,3 -2.25,5c-0.75,2 -1.38954,4.1731 -2.25,5c-1.3605,1.30746 -1.5,2 -2.25,3c-0.75,1 -0.52009,1.4588 -1.5,2c-0.69292,0.38269 -2.02009,1.4588 -3,2c-1.38581,0.76538 -3.11419,0.23462 -4.5,1c-0.97991,0.5412 -2.25,1 -3,1c-0.75,0 -1.5,0 -2.25,0c-2.25,0 -4.5,0 -6,0c-3,0 -3.75,0 -6,0c-0.75,0 -1.5,0 -1.5,0c-0.75,-1 -3,-2 -3,-2c-3,-2 -4.54012,-3.5405 -6,-4c-1.63218,-0.51373 -3,-2 -4.5,-4c-1.5,-2 -3,-4 -3.75,-5c-0.75,-1 -1.8441,-2.69345 -2.25,-4c-0.28702,-0.92389 0,-1 0,-1c0,0 -0.28702,1.07611 0,2c0.4059,1.30655 0.75,3 1.5,5c1.5,4 2.78558,6.21167 4.5,9c0.67245,1.09366 2.47403,2.94855 3.75,4c1.42657,1.17557 2.25,2 3.75,2c0.75,0 1.5,0 3.75,0c1.5,0 3,0 6,0c2.25,0 5.25,0 7.5,-1c2.25,-1 4.79015,-1.9176 6.75,-3c2.07873,-1.14804 4.65875,-1.71411 6.75,-4c1.64051,-1.79318 3.543,-4.22272 6,-8c1.38989,-2.13675 3.75,-7 5.25,-10c1.5,-3 2.44238,-4.797 3,-6c1.24688,-2.69 1.5,-4 1.5,-6c0,-2 0,-4 -0.75,-6c-0.75,-2 -2.14744,-3.14682 -3.75,-5c-2.83296,-3.276 -5.42203,-3.33197 -8.25,-5c-2.473,-1.45865 -3.41187,-2.95517 -6,-4c-1.43564,-0.57956 -3.65893,-1.49347 -6,-2c-2.22096,-0.48056 -4.47288,-1.11588 -6.75,-2c-2.96901,-1.15277 -4.66155,-1.11893 -9,-3c-1.59485,-0.6915 -4.58025,-2.08099 -7.5,-3c-1.63218,-0.51373 -4.5,-3 -6,-4c-1.5,-1 -3.10822,-2.93414 -3.75,-5c-0.90761,-2.92157 -1.90537,-5.0535 -2.25,-7c-0.3853,-2.17624 -0.75,-5 -0.75,-7c0,-1 0.46298,-5.07611 0.75,-6c0.8118,-2.61313 2.37094,-3.79626 5.25,-7c2.57513,-2.86551 6.8985,-5.63297 11.25,-9c2.33885,-1.80972 4.9455,-3.513 6.75,-5c2.0175,-1.66251 5.26687,-1.63345 7.5,-2c3.06917,-0.50378 5.25,-1 8.25,-1c1.5,0 3.79843,-0.8009 7.5,0c2.34107,0.50653 5.16115,3.19028 7.5,5c2.90099,2.24469 5.29248,3.91754 7.5,6c3.06129,2.88785 5.40875,3.71411 7.5,6c1.64049,1.79318 4.1147,3.82376 4.5,6c0.34465,1.9465 1.21298,4.07611 1.5,5c0.4059,1.30655 1.5,2 1.5,2l0,1l0,0" id="svg_2" fill="none"/>
 </g>

</svg>